<?xml version="1.0" encoding="utf-8"?>
<!-- Generator: Adobe Illustrator 16.0.0, SVG Export Plug-In . SVG Version: 6.00 Build 0)  -->
<!DOCTYPE svg PUBLIC "-//W3C//DTD SVG 1.1//EN" "http://www.w3.org/Graphics/SVG/1.1/DTD/svg11.dtd">
<svg version="1.1" id="Layer_1" xmlns="http://www.w3.org/2000/svg" xmlns:xlink="http://www.w3.org/1999/xlink" x="0px" y="0px"
	 width="1000px" height="200px" viewBox="0 0 1000 200" enable-background="new 0 0 1000 200" xml:space="preserve">
<path fill="#231F20" d="M92.605,87.946l56.855-54.799c-14.268-8.242-27.188-15.5-27.188-15.5s-13.775-9.352-29.667-0.746V87.946z"/>
<path fill="#231F20" d="M169.78,45.07c-2.128-1.277-4.383-2.615-6.689-3.976L52.386,148.17L52.349,39.976
	c-7.365,4.328-12.577,7.427-12.577,7.427s-13.29,7.813-13.29,22.094c0,0,0,63.299,0,64.603c0,1.305,0,13.602,13.907,21.75
	c3.143,1.843,7.829,4.522,13.097,7.562l39.12-37.064v59.65c0,0,13.473,8.603,28.378,0c9.272-5.352,28.701-16.568,42.062-24.282
	c-10.018-7.378-60.404-44.502-60.522-44.7l29.562-28.047c0.268,0.418,31.176,44.854,44.959,64.668c0,0,10.069-5.465,10.069-22.481
	c0-15.867,0-60.02,0-61.656C187.113,67.858,187.947,55.976,169.78,45.07z"/>
<g>
	<g>
		<g>
			<g>
				<g>
					<path fill="#231F20" d="M248.125,146.75c-0.78,0-1.417-0.638-1.417-1.417V57.255c0-0.78,0.638-1.417,1.417-1.417h12.062
						c0.78,0,1.417,0.638,1.417,1.417v49.409c0,0.779,0.478,0.994,1.062,0.479l56.903-50.366c0.584-0.517,1.698-0.939,2.479-0.939
						h15.621c0.78,0,0.945,0.428,0.367,0.951l-46.505,42.093c-0.578,0.523-0.589,1.391-0.024,1.928l47.247,44.964
						c0.565,0.536,0.389,0.977-0.391,0.977h-16.822c-0.78,0-1.875-0.443-2.436-0.986l-37.429-36.254
						c-0.56-0.543-1.488-0.556-2.063-0.028l-16.964,15.546c-0.575,0.526-1.045,1.596-1.045,2.375v17.932
						c0,0.779-0.638,1.417-1.417,1.417h-12.062V146.75z"/>
				</g>
			</g>
		</g>
		<g>
			<g>
				<g>
					<path fill="#231F20" d="M246.708,146.75V55.837h14.896v52.244l59.026-52.244h18.456L290.48,99.832l49.301,46.917h-19.657
						l-39.465-38.228l-19.054,17.462v20.766L246.708,146.75L246.708,146.75z"/>
				</g>
			</g>
		</g>
	</g>
	<path fill="#231F20" d="M359.048,110.727l15.938-38.277c0.275-0.673,0.886-1.367,1.738-2.001l0.127-0.088l0.418-0.156
		c0.744-0.276,1.393-0.379,1.722-0.379c0.786,0,1.523,0.174,2.198,0.514l0.07,0.067l0.489,0.315
		c0.489,0.312,0.949,0.903,1.168,1.501l0.036,0.124l0.057,0.117l16.052,38.266l5.915,14.116l9.265,22.044h15.35l-33.434-79.841
		l-0.014-0.039l-0.021-0.042c-1.417-3.23-3.626-5.985-6.396-7.965l-1.382-0.992h-0.275c-2.721-1.512-5.83-2.306-9.076-2.306
		c-3.496,0-6.747,0.889-9.655,2.635l-0.56,0.336l-0.365,0.365c-2.89,1.951-5.058,4.654-6.446,8.036l-24.93,60.085l10.777,10.881
		L359.048,110.727z"/>
	<path fill="#231F20" d="M549.619,146.888l9.159-22.044l5.886-14.117l15.938-38.277c0.276-0.673,0.886-1.367,1.742-2.001
		l0.128-0.088l0.41-0.156c0.744-0.276,1.396-0.379,1.735-0.379c0.778,0,1.517,0.174,2.195,0.514l0.063,0.067l0.489,0.315
		c0.487,0.312,0.948,0.903,1.168,1.501l0.043,0.124l0.05,0.117l16.051,38.266l5.915,14.116l9.215,22.044h15.345L601.78,67.048
		l-0.021-0.039l-0.021-0.042c-1.409-3.23-3.627-5.985-6.391-7.965l-1.396-0.992h-0.27c-2.728-1.512-5.829-2.306-9.066-2.306
		c-3.499,0-6.75,0.889-9.661,2.635l-0.567,0.336l-0.354,0.365c-2.897,1.955-5.065,4.654-6.453,8.036l-33.25,79.812H549.619z"/>
	<path fill="#231F20" d="M721.004,146.888l9.25-22.044l5.88-14.117l15.944-38.277c0.283-0.673,0.879-1.367,1.743-2.001l0.127-0.088
		l0.411-0.156c0.751-0.276,1.396-0.379,1.729-0.379c0.786,0,1.522,0.174,2.195,0.514l0.078,0.067l0.48,0.315
		c0.489,0.312,0.949,0.903,1.169,1.501l0.043,0.124l0.05,0.117l16.052,38.266l5.907,14.116l9.216,22.044h15.329l-33.356-79.841
		l-0.015-0.039l-0.021-0.042c-1.416-3.23-3.619-5.985-6.396-7.965l-1.39-0.992h-0.269c-2.729-1.512-5.83-2.306-9.074-2.306
		c-3.5,0-6.751,0.889-9.655,2.635l-0.56,0.336l-0.368,0.365c-2.883,1.951-5.058,4.654-6.445,8.036l-33.42,79.812H721.004z"/>
	<path fill="#231F20" d="M921.6,108.57h43.131V94.017H921.6c0.461-13.179,11.326-23.758,24.615-23.758h30.189V55.702h-30.189
		c-10.385,0-20.217,4.129-27.676,11.638c-7.423,7.466-11.503,17.248-11.503,27.541v12.821c0,10.342,4.107,20.146,11.566,27.61
		c7.46,7.466,17.263,11.574,27.611,11.574h30.189V132.33h-30.189C932.926,132.331,922.061,121.752,921.6,108.57z"/>
	<path fill="#231F20" d="M830.259,146.888v-28.667h35.573h0.057h0.049c17.016-0.354,30.863-14.371,30.863-31.259
		c0-8.252-3.28-16.072-9.229-22.022c-5.957-5.957-13.777-9.237-22.029-9.237h-28.228c-5.397,0-10.61,2.026-14.671,5.702
		l-0.099,0.085l-0.1,0.099l-0.433,0.432c-4.01,4.009-6.312,9.584-6.312,15.293v69.573L830.259,146.888L830.259,146.888z
		 M830.259,77.314c0-1.895,0.736-3.723,2.04-5.019l0.467-0.471l0.206-0.149c1.261-0.932,2.764-1.417,4.342-1.417h28.229
		c9.06,0,16.71,7.65,16.71,16.703c0,9.06-7.65,16.71-16.71,16.71h-1.87H830.26L830.259,77.314L830.259,77.314z"/>
	<path fill="#231F20" d="M514.004,55.295v73.172l-52.708-67.952c-1.998-2.932-5.695-4.813-9.521-4.813
		c-6.596,0-11.957,5.369-11.957,11.957v79.228h14.125V74.12l52.701,67.955c2.005,2.93,5.694,4.812,9.521,4.812
		c6.588,0,11.957-5.361,11.957-11.957V55.296L514.004,55.295L514.004,55.295z"/>
	<path fill="#231F20" d="M704.782,55.295l-31.353,74.833l-0.057,0.116l-0.035,0.121c-0.22,0.604-0.681,1.195-1.169,1.505
		l-0.496,0.318l-0.069,0.063c-0.674,0.34-1.402,0.51-2.189,0.51c-0.332,0-0.977-0.092-1.729-0.379l-0.418-0.151l-0.228-0.156
		l-0.049-0.031l-0.05-0.025c-0.639-0.413-1.227-1.126-1.537-1.877l-31.218-74.847h-15.3l33.504,80.251l0.021,0.036l0.021,0.039
		c1.452,3.332,3.655,6.06,6.39,7.93l0.36,0.361l0.574,0.347c2.911,1.743,6.155,2.628,9.654,2.628c3.612,0,7.062-0.987,9.995-2.86
		l0.015-0.008l0.382-0.185l0.341-0.248c2.771-1.976,4.979-4.73,6.396-7.965l0.015-0.039l0.021-0.036l33.567-80.251H704.782
		L704.782,55.295z"/>
	<rect x="727.329" y="104.146" fill="#231F20" width="57.581" height="14.073"/>
	<rect x="555.952" y="104.146" fill="#231F20" width="57.581" height="14.073"/>
	<rect x="350.601" y="104.146" fill="#231F20" width="57.583" height="14.073"/>
</g>
</svg>
